<svg width="275" height="220" viewBox="0 0 275 220" fill="none" xmlns="http://www.w3.org/2000/svg">
<path d="M180.5 0H275L228 81.5L180.5 0Z" fill="#BC2132"/>
<path d="M0 0H67.5C72 1.5 83.5 13 85 15.5C86.2 17.5 120.5 76.6667 137.5 106H93C78 108 55.5 99 40.5 70.5C35.3 61.7 11.3333 19.8333 0 0Z" fill="#BC2132"/>
<path d="M163.5 106H213L162 195.5C156 203.5 139.9 219.5 123.5 219.5H71.5L122 133C130.8 116.2 153 106 163.5 106Z" fill="#BC2132"/>
<path d="M42.5 214.5H18L22 207.5L37.5 208.5L29 195L33.5 188.5L45 208.5L53.5 214.5L49.5 219.5L42.5 214.5Z" fill="#1E386D"/>
<path d="M34.5 186.5L59 204L62 198L44 185L62 189.5L66 182L53.5 169L73.5 177.5L76.5 173L49.5 160.5L45 169L56.5 182L39.5 177.5L34.5 186.5Z" fill="#1E386D"/>
<path d="M58 155C57 153.5 54 141.5 65 135.5C66.5 137 69.4 140 69 140C68.2701 139.854 68.0943 139.58 68.0743 139.402C67.9062 139.761 67.2434 140.757 65 143C60.6 147.4 63.8333 152.833 66 155C69 157 73.5 160.5 79.5 157.5C83.1835 155.658 84 151.167 84 149C85.8044 149.601 89.1552 150.664 89.4997 150.573C89.4999 150.548 89.5 150.524 89.5 150.5C89.5391 150.539 89.5371 150.563 89.4997 150.573C89.4484 158.039 81.479 164.005 75 165.5C68.5 167 59 156.5 58 155Z" fill="#1E386D"/>
<path fill-rule="evenodd" clip-rule="evenodd" d="M69 125L90.5 150.5L94 143L90.5 140L97 128.5L102 129.5L106 123.5L73.5 118L69 125ZM87 135.5L78 125L91.5 127.5L87 135.5Z" fill="#1E386D"/>
</svg>
